<svg id="Layer_1" data-name="Layer 1" xmlns="http://www.w3.org/2000/svg" viewBox="0 0 49.46 55.23"><defs><style>.cls-1{fill:#002657;}.cls-2{fill:#002856;}</style></defs><title>Artboard 49</title><path class="cls-1" d="M24.73,55.23a6.05,6.05,0,0,1-3-.81L3,43.64A6.07,6.07,0,0,1,0,38.4V16.83a6.07,6.07,0,0,1,3-5.24H3L21.7.81a6.07,6.07,0,0,1,6.06,0L46.43,11.59a6.07,6.07,0,0,1,3,5.24V38.4a6.07,6.07,0,0,1-3,5.25L27.76,54.42A6.05,6.05,0,0,1,24.73,55.23ZM3.53,12.46A5.07,5.07,0,0,0,1,16.83V38.4a5.07,5.07,0,0,0,2.53,4.38L22.2,53.56a5.07,5.07,0,0,0,5.06,0L45.93,42.78a5.07,5.07,0,0,0,2.53-4.38V16.83a5.07,5.07,0,0,0-2.53-4.38L27.26,1.67a5.07,5.07,0,0,0-5.06,0Z"/><rect class="cls-2" x="29.2" y="30.19" width="1.66" height="1.66"/><rect class="cls-2" x="32.52" y="30.19" width="1.66" height="1.66"/><rect class="cls-2" x="35.84" y="30.19" width="1.66" height="1.66"/><rect class="cls-2" x="29.2" y="26.87" width="1.66" height="1.66"/><rect class="cls-2" x="32.52" y="26.87" width="1.66" height="1.66"/><rect class="cls-2" x="35.84" y="26.87" width="1.66" height="1.66"/><rect class="cls-2" x="29.2" y="23.56" width="1.66" height="1.66"/><rect class="cls-2" x="32.52" y="23.56" width="1.66" height="1.66"/><rect class="cls-2" x="35.84" y="23.56" width="1.66" height="1.66"/><rect class="cls-2" x="29.2" y="33.51" width="1.66" height="1.66"/><rect class="cls-2" x="32.52" y="33.51" width="1.66" height="1.66"/><rect class="cls-2" x="35.84" y="33.51" width="1.66" height="1.66"/><rect class="cls-2" x="29.2" y="36.82" width="1.66" height="1.66"/><rect class="cls-2" x="32.52" y="36.82" width="1.66" height="1.66"/><rect class="cls-2" x="35.84" y="36.82" width="1.66" height="1.66"/><path class="cls-2" d="M39.15,40.64H17.59a.5.5,0,0,1-.5-.5V31.85a.5.5,0,0,1,.5-.5H27V21.9a.5.5,0,0,1,.5-.5H39.15a.5.5,0,0,1,.5.5V40.14A.5.5,0,0,1,39.15,40.64Zm-21.06-1H38.65V22.4H28v9.45a.5.5,0,0,1-.5.5H18.09Z"/><rect class="cls-2" x="22.57" y="36.82" width="1.66" height="1.66"/><rect class="cls-2" x="25.89" y="36.82" width="1.66" height="1.66"/><rect class="cls-2" x="22.57" y="33.51" width="1.66" height="1.66"/><rect class="cls-2" x="19.25" y="36.82" width="1.66" height="1.66"/><rect class="cls-2" x="19.25" y="33.51" width="1.66" height="1.66"/><rect class="cls-2" x="25.89" y="33.51" width="1.66" height="1.66"/><path class="cls-1" d="M16.87,30.45a.5.5,0,0,1-.25-.07L11.27,27.3a2.1,2.1,0,0,1-1-1.81V19.31a2.1,2.1,0,0,1,1-1.81.5.5,0,0,1,.5.87,1.09,1.09,0,0,0-.55.94v6.17a1.09,1.09,0,0,0,.55.94l4.68,2.7.4-3.78-1.62-.93a1.07,1.07,0,0,1-.53-.92V21.3a1.07,1.07,0,0,1,.53-.92l1.9-1.09a1.07,1.07,0,0,1,1.06,0l1.9,1.09a1.07,1.07,0,0,1,.53.92v1.87l3.48,1.55v-5.4a1.09,1.09,0,0,0-.55-.94l-5.35-3.09a1.09,1.09,0,0,0-1.09,0,.5.5,0,0,1-.5-.87,2.1,2.1,0,0,1,2.09,0l5.35,3.09a2.1,2.1,0,0,1,1,1.81v6.17a.5.5,0,0,1-.7.46l-4.48-2a.5.5,0,0,1-.3-.46V21.3l-1.93-1.15-2,1.09,0,2.25,1.93,1.15a.5.5,0,0,1,.25.49L17.36,30a.5.5,0,0,1-.5.45Z"/><path class="cls-1" d="M16.87,15.35a.5.5,0,0,1-.43-.25l-1.49-2.58a.5.5,0,1,1,.87-.5L17.3,14.6a.5.5,0,0,1-.43.75Z"/><path class="cls-1" d="M11.52,18.43a.5.5,0,0,1-.43-.25L9.59,15.6a.5.5,0,1,1,.87-.5L12,17.68a.5.5,0,0,1-.43.75Z"/></svg>