<svg id="Layer_1" data-name="Layer 1" xmlns="http://www.w3.org/2000/svg" viewBox="0 0 49.46 55.23"><defs><style>.cls-1{fill:#002657;}</style></defs><title>Artboard 58</title><path class="cls-1" d="M24.73,55.23a6.05,6.05,0,0,1-3-.81L3,43.64A6.07,6.07,0,0,1,0,38.4V16.83a6.07,6.07,0,0,1,3-5.24L21.7.81a6.07,6.07,0,0,1,6.06,0L46.43,11.59a6.07,6.07,0,0,1,3,5.24V38.4a6.07,6.07,0,0,1-3,5.24h0L27.76,54.42A6.05,6.05,0,0,1,24.73,55.23ZM24.73,1a5.05,5.05,0,0,0-2.53.68L3.53,12.46A5.07,5.07,0,0,0,1,16.83V38.4a5.07,5.07,0,0,0,2.53,4.38L22.2,53.56a5.07,5.07,0,0,0,5.06,0L45.93,42.78a5.07,5.07,0,0,0,2.53-4.38V16.83a5.07,5.07,0,0,0-2.53-4.38L27.26,1.67A5.05,5.05,0,0,0,24.73,1ZM46.18,43.21h0Z"/><path class="cls-1" d="M24.41,39.09a3.2,3.2,0,0,1-1.6-.43l-9.07-5.24a3.21,3.21,0,0,1-1.6-2.77V20.19a.5.5,0,0,1,.7-.46l7.59,3.38a.5.5,0,0,1,.3.46v3.71a.46.46,0,0,0,.23.4l3.22,1.86a.46.46,0,0,0,.46,0l3.22-1.86a.46.46,0,0,0,.23-.4V23.57a.46.46,0,0,0-.23-.4l-3.22-1.86a.5.5,0,0,1-.25-.49l.87-8.26a.5.5,0,0,1,.75-.38l9.07,5.24a3.21,3.21,0,0,1,1.6,2.77V30.66a3.21,3.21,0,0,1-1.6,2.77.5.5,0,0,1-.5-.87,2.2,2.2,0,0,0,1.1-1.9V20.19a2.2,2.2,0,0,0-1.1-1.9l-8.4-4.85-.76,7.18,2.94,1.69a1.46,1.46,0,0,1,.73,1.26v3.71a1.46,1.46,0,0,1-.73,1.26L25.14,30.4a1.46,1.46,0,0,1-1.46,0l-3.22-1.86a1.46,1.46,0,0,1-.73-1.26V23.89L13.15,21v9.7a2.2,2.2,0,0,0,1.1,1.9l9.07,5.24a2.2,2.2,0,0,0,2.2,0,.5.5,0,0,1,.5.87A3.2,3.2,0,0,1,24.41,39.09Z"/><path class="cls-1" d="M28.29,43.12a.5.5,0,0,1-.43-.25l-2.53-4.38a.5.5,0,1,1,.87-.5l2.53,4.38a.5.5,0,0,1-.43.75Z"/><path class="cls-1" d="M37.36,37.88a.5.5,0,0,1-.43-.25L34.4,33.25a.5.5,0,1,1,.87-.5l2.53,4.38a.5.5,0,0,1-.43.75Z"/></svg>