<svg id="Layer_1" data-name="Layer 1" xmlns="http://www.w3.org/2000/svg" viewBox="0 0 65.61 73.31"><defs><style>.cls-1{fill:#002657;}</style></defs><title>Artboard 44</title><path class="cls-1" d="M32.81,73.31a7.91,7.91,0,0,1-4-1.06L4,57.88A7.93,7.93,0,0,1,0,51V22.28a7.93,7.93,0,0,1,4-6.85L28.85,1.06a7.93,7.93,0,0,1,7.91,0l24.9,14.38a7.93,7.93,0,0,1,4,6.85V51a7.93,7.93,0,0,1-4,6.85l-.25-.43.25.43L36.76,72.25A7.91,7.91,0,0,1,32.81,73.31ZM32.81,1a6.91,6.91,0,0,0-3.45.92L4.45,16.3a6.93,6.93,0,0,0-3.45,6V51a6.93,6.93,0,0,0,3.45,6l24.9,14.38a6.93,6.93,0,0,0,6.91,0L61.16,57a6.93,6.93,0,0,0,3.45-6V22.28a6.93,6.93,0,0,0-3.45-6L36.26,1.92A6.91,6.91,0,0,0,32.81,1Z"/><path class="cls-1" d="M49.76,49.91H16.13a.5.5,0,0,1-.5-.5V20.95a.5.5,0,0,1,.5-.5H49.76a.5.5,0,0,1,.5.5V49.41A.5.5,0,0,1,49.76,49.91Zm-33.14-1H49.26V21.45H16.63Z"/><path class="cls-1" d="M41.35,49.91a.5.5,0,0,1-.5-.5v-22a.5.5,0,1,1,1,0v22A.5.5,0,0,1,41.35,49.91Z"/><path class="cls-1" d="M32.94,49.91a.5.5,0,0,1-.5-.5v-22a.5.5,0,0,1,1,0v22A.5.5,0,0,1,32.94,49.91Z"/><path class="cls-1" d="M24.54,49.91a.5.5,0,0,1-.5-.5v-22a.5.5,0,0,1,1,0v22A.5.5,0,0,1,24.54,49.91Z"/><path class="cls-1" d="M49.76,35.25H16.13a.5.5,0,0,1,0-1H49.76a.5.5,0,0,1,0,1Z"/><path class="cls-1" d="M49.76,42.58H16.13a.5.5,0,0,1,0-1H49.76a.5.5,0,0,1,0,1Z"/><path class="cls-1" d="M49.76,49.91H16.13a.5.5,0,1,1,0-1H49.76a.5.5,0,0,1,0,1Z"/><path class="cls-1" d="M49.76,27.92H16.13a.5.5,0,0,1,0-1H49.76a.5.5,0,0,1,0,1Z"/></svg>