<svg id="Layer_1" data-name="Layer 1" xmlns="http://www.w3.org/2000/svg" viewBox="0 0 49.46 55.23"><defs><style>.cls-1{fill:#002657;}</style></defs><title>Artboard 47</title><path class="cls-1" d="M24.73,55.23a6.05,6.05,0,0,1-3-.81L3,43.64A6.07,6.07,0,0,1,0,38.4V16.83a6.07,6.07,0,0,1,3-5.24H3L21.7.81a6.07,6.07,0,0,1,6.06,0L46.43,11.59a6.07,6.07,0,0,1,3,5.24V38.4a6.07,6.07,0,0,1-3,5.25L27.76,54.42A6.05,6.05,0,0,1,24.73,55.23ZM3.53,12.46A5.07,5.07,0,0,0,1,16.83V38.4a5.07,5.07,0,0,0,2.53,4.38L22.2,53.56a5.07,5.07,0,0,0,5.06,0L45.93,42.78a5.07,5.07,0,0,0,2.53-4.38V16.83a5.07,5.07,0,0,0-2.53-4.38L27.26,1.67a5.07,5.07,0,0,0-5.06,0Z"/><path class="cls-1" d="M28.75,21h-8a2.58,2.58,0,0,1-2.23-1.28l-4-7a.5.5,0,1,1,.87-.5l4,7a1.58,1.58,0,0,0,1.36.79h8a1.58,1.58,0,0,0,1.36-.79l4-7a.5.5,0,1,1,.87.5l-4,7A2.58,2.58,0,0,1,28.75,21Z"/><path class="cls-1" d="M29.58,24.42a.5.5,0,0,1-.5-.5V21H20.37v3a.5.5,0,0,1-1,0V20.47a.5.5,0,0,1,.5-.5h9.71a.5.5,0,0,1,.5.5v3.45A.5.5,0,0,1,29.58,24.42Z"/><path class="cls-1" d="M20.71,21a.5.5,0,0,1,0-1,1.58,1.58,0,0,0,1.36-.79l4-7a.5.5,0,1,1,.87.5l-4,7A2.58,2.58,0,0,1,20.71,21Z"/><path class="cls-1" d="M24.73,16.08a.5.5,0,0,1-.43-.25L22.5,12.72a.5.5,0,1,1,.87-.5l1.79,3.11a.5.5,0,0,1-.43.75Z"/><path class="cls-1" d="M24.73,43.26A10.54,10.54,0,1,1,35.27,32.71,10.55,10.55,0,0,1,24.73,43.26Zm0-20.09a9.54,9.54,0,1,0,9.54,9.54A9.55,9.55,0,0,0,24.73,23.17Z"/><path class="cls-1" d="M21.63,39.08A1.6,1.6,0,0,1,20,37.44l.07-2.5a.6.6,0,0,0-.12-.38l-1.53-2a1.6,1.6,0,0,1,.81-2.51l2.4-.71a.6.6,0,0,0,.33-.24L23.41,27a1.6,1.6,0,0,1,1.32-.69h0A1.6,1.6,0,0,1,26,27l1.42,2.07a.6.6,0,0,0,.32.24l2.4.71A1.6,1.6,0,0,1,31,32.56l-1.53,2a.6.6,0,0,0-.12.38l.07,2.5A1.6,1.6,0,0,1,27.29,39l-2.36-.84a.59.59,0,0,0-.4,0L22.17,39A1.6,1.6,0,0,1,21.63,39.08Zm3.1-2a1.61,1.61,0,0,1,.54.09l2.36.84a.6.6,0,0,0,.8-.58L28.35,35a1.6,1.6,0,0,1,.33-1l1.53-2a.6.6,0,0,0-.3-.94l-2.4-.71a1.6,1.6,0,0,1-.87-.63l-1.42-2.07h0a.59.59,0,0,0-.49-.26h0a.59.59,0,0,0-.49.26l-1.42,2.07a1.61,1.61,0,0,1-.87.63l-2.4.71a.6.6,0,0,0-.3.94l1.53,2a1.61,1.61,0,0,1,.33,1L21,37.46a.6.6,0,0,0,.8.58l2.36-.84A1.61,1.61,0,0,1,24.73,37.11Z"/></svg>