<svg id="Layer_1" data-name="Layer 1" xmlns="http://www.w3.org/2000/svg" viewBox="0 0 49.46 55.23"><defs><style>.cls-1{fill:#002856;}.cls-2{fill:#002657;}</style></defs><title>Artboard 51</title><path class="cls-1" d="M34.12,40H15.34a.5.5,0,0,1-.5-.5V21a.5.5,0,0,1,.12-.33l4.62-5.28a.5.5,0,0,1,.38-.17H34.12a.5.5,0,0,1,.5.5V39.52A.5.5,0,0,1,34.12,40ZM15.84,39H33.62V16.21H20.18l-4.34,5Z"/><path class="cls-2" d="M24.73,55.23a6.05,6.05,0,0,1-3-.81L3,43.64A6.07,6.07,0,0,1,0,38.4V16.83a6.07,6.07,0,0,1,3-5.24L21.7.81a6.07,6.07,0,0,1,6.06,0L46.43,11.59a6.07,6.07,0,0,1,3,5.24V38.4a6.07,6.07,0,0,1-3,5.25h0L27.76,54.42A6.05,6.05,0,0,1,24.73,55.23ZM24.73,1a5.05,5.05,0,0,0-2.53.68L3.53,12.46A5.07,5.07,0,0,0,1,16.83V38.4a5.07,5.07,0,0,0,2.53,4.38L22.2,53.56a5.07,5.07,0,0,0,5.06,0L45.93,42.78a5.07,5.07,0,0,0,2.53-4.38V16.83a5.07,5.07,0,0,0-2.53-4.38L27.26,1.67A5.05,5.05,0,0,0,24.73,1ZM46.18,43.21h0Z"/><path class="cls-1" d="M20,21.49H15.4v-1h4.05V15.71h1V21A.5.5,0,0,1,20,21.49Z"/><path class="cls-1" d="M17.41,37V33.15h1v3H20V37Z"/><path class="cls-1" d="M22.3,37.05c-1.51,0-1.84-1-1.84-2s.33-2,1.84-2,1.85,1,1.85,2S23.81,37.05,22.3,37.05Zm0-3.2c-.61,0-.81.31-.81,1.16s.2,1.25.81,1.25.82-.31.82-1.25S22.91,33.86,22.3,33.86Z"/><path class="cls-1" d="M26.64,37.05c-1.38,0-1.95-.68-1.95-2s.49-2,1.94-2a1.45,1.45,0,0,1,1.65,1.38h-.93a.64.64,0,0,0-.72-.58c-.68,0-.92.28-.92,1.2s.24,1.21.92,1.21a1.34,1.34,0,0,0,.64-.17v-.4a.31.31,0,0,1,0-.1h-.64l-.22-.75h1.85v1.64A2.71,2.71,0,0,1,26.64,37.05Z"/><path class="cls-1" d="M30.51,37.05a1.72,1.72,0,0,1-1.67-.91l.79-.37a.91.91,0,0,0,.88.5c.52,0,.66-.18.66-.44s-.08-.32-.37-.37c-.85-.13-1.85-.13-1.85-1.26,0-.74.67-1.14,1.58-1.14a1.68,1.68,0,0,1,1.58.76l-.8.37a.82.82,0,0,0-.78-.37c-.42,0-.59.14-.59.34s.08.28.28.31c.9.14,1.95.14,1.95,1.33C32.17,36.61,31.56,37.05,30.51,37.05Z"/></svg>