<svg id="Layer_1" data-name="Layer 1" xmlns="http://www.w3.org/2000/svg" viewBox="0 0 49.46 55.23"><defs><style>.cls-1{fill:#002657;}</style></defs><title>Artboard 57</title><path class="cls-1" d="M24.73,55.23a6.05,6.05,0,0,1-3-.81L3,43.64A6.07,6.07,0,0,1,0,38.4V16.83a6.07,6.07,0,0,1,3-5.24L21.7.81a6.07,6.07,0,0,1,6.06,0L46.43,11.59a6.07,6.07,0,0,1,3,5.24V38.4a6.07,6.07,0,0,1-3,5.24h0L27.76,54.42A6.05,6.05,0,0,1,24.73,55.23ZM24.73,1a5.05,5.05,0,0,0-2.53.68L3.53,12.46A5.07,5.07,0,0,0,1,16.83V38.4a5.07,5.07,0,0,0,2.53,4.38L22.2,53.56a5.07,5.07,0,0,0,5.06,0L45.93,42.78a5.07,5.07,0,0,0,2.53-4.38V16.83a5.07,5.07,0,0,0-2.53-4.38L27.26,1.67A5.05,5.05,0,0,0,24.73,1ZM46.18,43.21h0Z"/><path class="cls-1" d="M20.7,40.62a3.26,3.26,0,0,1-1.25-.25,3.19,3.19,0,0,1-2-3.14,2.23,2.23,0,0,0-2.34-2.34,3.23,3.23,0,0,1-2.33-5.62,2.23,2.23,0,0,0,0-3.3,3.23,3.23,0,0,1,2.33-5.62A2.23,2.23,0,0,0,17.46,18a3.23,3.23,0,0,1,5.62-2.33,2.23,2.23,0,0,0,1.65.73h0a2.23,2.23,0,0,0,1.65-.73h0A3.23,3.23,0,0,1,32,18a2.22,2.22,0,0,0,2.34,2.34A3.23,3.23,0,0,1,36.66,26a2.23,2.23,0,0,0,0,3.3,3.23,3.23,0,0,1-2.33,5.62,2.25,2.25,0,0,0-1.69.65A2.23,2.23,0,0,0,32,37.22a3.23,3.23,0,0,1-5.62,2.33,2.23,2.23,0,0,0-1.65-.73h0a2.23,2.23,0,0,0-1.65.73A3.19,3.19,0,0,1,20.7,40.62Zm-5.46-6.73a3.22,3.22,0,0,1,3.22,3.39,2.23,2.23,0,0,0,3.88,1.6,3.23,3.23,0,0,1,2.39-1.06h0a3.23,3.23,0,0,1,2.39,1.06A2.23,2.23,0,0,0,31,37.27a3.22,3.22,0,0,1,3.38-3.39,2.21,2.21,0,0,0,2.17-1.37A2.18,2.18,0,0,0,36,30a3.22,3.22,0,0,1,0-4.79,2.23,2.23,0,0,0-1.61-3.87A3.22,3.22,0,0,1,31,18a2.23,2.23,0,0,0-3.87-1.6h0a3.23,3.23,0,0,1-2.39,1.06h0a3.23,3.23,0,0,1-2.39-1.06A2.23,2.23,0,0,0,18.46,18a3.22,3.22,0,0,1-3.39,3.39,2.23,2.23,0,0,0-1.6,3.87,3.23,3.23,0,0,1,0,4.79,2.23,2.23,0,0,0,1.6,3.87ZM26.75,16h0Z"/><path class="cls-1" d="M24.73,32.42a4.81,4.81,0,1,1,4.81-4.81A4.81,4.81,0,0,1,24.73,32.42Zm0-8.61a3.81,3.81,0,1,0,3.81,3.81A3.81,3.81,0,0,0,24.73,23.81Z"/></svg>