<svg id="Layer_1" data-name="Layer 1" xmlns="http://www.w3.org/2000/svg" viewBox="0 0 49.46 55.23"><defs><style>.cls-1{fill:#002657;}.cls-2{fill:#002856;}</style></defs><title>Artboard 48</title><path class="cls-1" d="M24.73,55.23a6.05,6.05,0,0,1-3-.81L3,43.64A6.07,6.07,0,0,1,0,38.4V16.83a6.07,6.07,0,0,1,3-5.24L21.7.81a6.07,6.07,0,0,1,6.06,0L46.43,11.59a6.07,6.07,0,0,1,3,5.24V38.4a6.07,6.07,0,0,1-3,5.25L27.76,54.42A6.05,6.05,0,0,1,24.73,55.23ZM24.73,1a5.05,5.05,0,0,0-2.53.68L3.53,12.46h0A5.07,5.07,0,0,0,1,16.83V38.4a5.07,5.07,0,0,0,2.53,4.38L22.2,53.56a5.07,5.07,0,0,0,5.06,0L45.93,42.78a5.07,5.07,0,0,0,2.53-4.38V16.83a5.07,5.07,0,0,0-2.53-4.38L27.26,1.67A5.05,5.05,0,0,0,24.73,1ZM3.28,12h0Z"/><rect class="cls-2" x="29.2" y="30.19" width="1.66" height="1.66"/><rect class="cls-2" x="32.52" y="30.19" width="1.66" height="1.66"/><rect class="cls-2" x="35.84" y="30.19" width="1.66" height="1.66"/><rect class="cls-2" x="29.2" y="26.87" width="1.66" height="1.66"/><rect class="cls-2" x="32.52" y="26.87" width="1.66" height="1.66"/><rect class="cls-2" x="35.84" y="26.87" width="1.66" height="1.66"/><rect class="cls-2" x="29.2" y="23.56" width="1.66" height="1.66"/><rect class="cls-2" x="32.52" y="23.56" width="1.66" height="1.66"/><rect class="cls-2" x="35.84" y="23.56" width="1.66" height="1.66"/><rect class="cls-2" x="29.2" y="33.51" width="1.66" height="1.66"/><rect class="cls-2" x="32.52" y="33.51" width="1.66" height="1.66"/><rect class="cls-2" x="35.84" y="33.51" width="1.66" height="1.66"/><rect class="cls-2" x="29.2" y="36.82" width="1.66" height="1.66"/><rect class="cls-2" x="32.52" y="36.82" width="1.66" height="1.66"/><rect class="cls-2" x="35.84" y="36.82" width="1.66" height="1.66"/><path class="cls-2" d="M39.15,40.64H17.59a.5.5,0,0,1-.5-.5V31.85a.5.5,0,0,1,.5-.5H27V21.9a.5.5,0,0,1,.5-.5H39.15a.5.5,0,0,1,.5.5V40.14A.5.5,0,0,1,39.15,40.64Zm-21.06-1H38.65V22.4H28v9.45a.5.5,0,0,1-.5.5H18.09Z"/><rect class="cls-2" x="22.57" y="36.82" width="1.66" height="1.66"/><rect class="cls-2" x="25.89" y="36.82" width="1.66" height="1.66"/><rect class="cls-2" x="22.57" y="33.51" width="1.66" height="1.66"/><rect class="cls-2" x="19.25" y="36.82" width="1.66" height="1.66"/><rect class="cls-2" x="19.25" y="33.51" width="1.66" height="1.66"/><rect class="cls-2" x="25.89" y="33.51" width="1.66" height="1.66"/><path class="cls-1" d="M15.15,29.4a2.08,2.08,0,0,1-.8-.16,2,2,0,0,1-1.27-2,1.05,1.05,0,0,0-.31-.8,1,1,0,0,0-.8-.31,2.06,2.06,0,0,1-1.48-3.58,1.06,1.06,0,0,0,0-1.57A2.06,2.06,0,0,1,12,17.39a1.06,1.06,0,0,0,1.11-1.11,2.06,2.06,0,0,1,3.58-1.48,1,1,0,0,0,.78.35h0a1,1,0,0,0,.79-.35,2.06,2.06,0,0,1,3.58,1.48,1.06,1.06,0,0,0,1.11,1.11A2.06,2.06,0,0,1,24.41,21a1.06,1.06,0,0,0,0,1.57,2,2,0,0,1,.52,2.31,2.06,2.06,0,0,1-2,1.27,1.06,1.06,0,0,0-1.11,1.11,2.06,2.06,0,0,1-3.58,1.48,1,1,0,0,0-.79-.35h0a1,1,0,0,0-.78.35h0A2,2,0,0,1,15.15,29.4ZM12,25.12a2.06,2.06,0,0,1,2.05,2.16,1.06,1.06,0,0,0,1.84.76h0a2.06,2.06,0,0,1,1.53-.68h0A2.06,2.06,0,0,1,19,28a1.06,1.06,0,0,0,1.84-.76A2.06,2.06,0,0,1,23,25.13a1,1,0,0,0,1-.65,1,1,0,0,0-.27-1.19,2.06,2.06,0,0,1,0-3.05A1,1,0,0,0,24,19a1,1,0,0,0-1-.65,2.06,2.06,0,0,1-2.16-2.16A1.06,1.06,0,0,0,19,15.47a2.06,2.06,0,0,1-1.53.68h0a2.06,2.06,0,0,1-1.53-.68,1.06,1.06,0,0,0-1.84.76,2.06,2.06,0,0,1-2.16,2.16,1.06,1.06,0,0,0-.76,1.84,2.06,2.06,0,0,1,0,3.05,1.06,1.06,0,0,0,.76,1.84Zm4.27,3.26h0Z"/><path class="cls-1" d="M17.45,24.72a3,3,0,1,1,3-3A3,3,0,0,1,17.45,24.72Zm0-4.92a2,2,0,1,0,2,2A2,2,0,0,0,17.45,19.8Z"/></svg>