<svg id="Layer_1" data-name="Layer 1" xmlns="http://www.w3.org/2000/svg" viewBox="0 0 49.46 55.23"><defs><style>.cls-1{fill:#002657;}.cls-2{fill:#002856;}</style></defs><title>Artboard 50</title><path class="cls-1" d="M24.73,55.23a6.06,6.06,0,0,1-3-.81L3,43.64A6.07,6.07,0,0,1,0,38.4V16.83a6.07,6.07,0,0,1,3-5.24L21.7.81a6.08,6.08,0,0,1,6.06,0L46.43,11.59a6.07,6.07,0,0,1,3,5.24V38.4a6.07,6.07,0,0,1-3,5.25h0L27.76,54.42A6.06,6.06,0,0,1,24.73,55.23ZM24.73,1a5.06,5.06,0,0,0-2.53.68L3.53,12.46A5.07,5.07,0,0,0,1,16.83V38.4a5.07,5.07,0,0,0,2.53,4.38L22.2,53.56a5.07,5.07,0,0,0,5.06,0L45.93,42.78a5.07,5.07,0,0,0,2.53-4.38V16.83a5.07,5.07,0,0,0-2.53-4.38L27.26,1.67A5.06,5.06,0,0,0,24.73,1ZM46.18,43.21h0Z"/><path class="cls-1" d="M26,35.78a.5.5,0,0,1,0-1A6.64,6.64,0,1,0,26,21.5a.5.5,0,0,1,0-1,7.64,7.64,0,1,1,0,15.29Z"/><path class="cls-1" d="M28,24.42a.5.5,0,0,1-.41-.21l-2-2.93a.5.5,0,0,1,.12-.7l2.93-2a.5.5,0,0,1,.57.82l-2.52,1.76,1.76,2.52a.5.5,0,0,1-.41.79Z"/><path class="cls-1" d="M21.78,23.39H16.33a.5.5,0,0,1-.5-.5V17.45a.5.5,0,0,1,.5-.5h5.45a.5.5,0,0,1,.5.5v5.45A.5.5,0,0,1,21.78,23.39Zm-4.95-1h4.45V17.95H16.83Z"/><path class="cls-1" d="M21.78,30.84H16.33a.5.5,0,0,1-.5-.5V24.89a.5.5,0,0,1,.5-.5h5.45a.5.5,0,0,1,.5.5v5.45A.5.5,0,0,1,21.78,30.84Zm-4.95-1h4.45V25.39H16.83Z"/><rect class="cls-2" x="16.34" y="32.34" width="5.45" height="5.45"/><path class="cls-1" d="M21.78,38.28H16.33a.5.5,0,0,1-.5-.5V32.34a.5.5,0,0,1,.5-.5h5.45a.5.5,0,0,1,.5.5v5.45A.5.5,0,0,1,21.78,38.28Zm-4.95-1h4.45V32.84H16.83Z"/></svg>