<svg id="Layer_1" data-name="Layer 1" xmlns="http://www.w3.org/2000/svg" viewBox="0 0 65.61 73.31"><defs><style>.cls-1{fill:#002657;}</style></defs><title>Artboard 46</title><path class="cls-1" d="M50.26,49.91H15.63a.5.5,0,0,1,0-1H50.26a.5.5,0,0,1,0,1Z"/><path class="cls-1" d="M32.81,73.31a7.91,7.91,0,0,1-4-1.06L4,57.88A7.93,7.93,0,0,1,0,51V22.28a7.93,7.93,0,0,1,4-6.85L28.85,1.06a7.93,7.93,0,0,1,7.91,0l24.9,14.37a7.93,7.93,0,0,1,4,6.85V51a7.93,7.93,0,0,1-4,6.85l-.25-.43.25.43L36.76,72.25A7.91,7.91,0,0,1,32.81,73.31ZM32.81,1a6.91,6.91,0,0,0-3.45.92L4.45,16.3a6.93,6.93,0,0,0-3.45,6V51a6.93,6.93,0,0,0,3.45,6l24.9,14.38a6.93,6.93,0,0,0,6.91,0L61.16,57a6.93,6.93,0,0,0,3.45-6V22.28a6.93,6.93,0,0,0-3.45-6L36.26,1.92A6.91,6.91,0,0,0,32.81,1Z"/><path class="cls-1" d="M15.63,49.91a.5.5,0,0,1-.5-.5V24.26a.5.5,0,1,1,1,0V49.41A.5.5,0,0,1,15.63,49.91Z"/><path class="cls-1" d="M22.77,42.77a.5.5,0,0,1-.35-.85l9.16-9.16a.5.5,0,0,1,.57-.1L41,36.9,49.91,28a.5.5,0,0,1,.71.71l-9.16,9.16a.5.5,0,0,1-.57.1L32,33.71l-8.91,8.91A.5.5,0,0,1,22.77,42.77Z"/><path class="cls-1" d="M50.26,33.6a.5.5,0,0,1-.5-.5V28.84H45.5a.5.5,0,1,1,0-1h4.76a.5.5,0,0,1,.5.5V33.1A.5.5,0,0,1,50.26,33.6Z"/></svg>